<mxfile host="app.diagrams.net" modified="2024-04-18T01:58:53.009Z" agent="Mozilla/5.0 (X11; Linux x86_64) AppleWebKit/537.36 (KHTML, like Gecko) Chrome/123.0.0.0 Safari/537.36" etag="tXvY8hGyf2Y6eRiyG7Pr" version="24.2.5" type="device">
  <diagram name="Page-1" id="bVdhCnrpjDWFNXXhfxfb">
    <mxGraphModel dx="557" dy="523" grid="1" gridSize="10" guides="1" tooltips="1" connect="1" arrows="1" fold="1" page="1" pageScale="1" pageWidth="850" pageHeight="1100" math="0" shadow="0">
      <root>
        <mxCell id="0" />
        <mxCell id="1" parent="0" />
        <mxCell id="0UKZ5Wy3TwZcNnDCWIbI-5" value="Combo" style="swimlane;fontStyle=0;childLayout=stackLayout;horizontal=1;startSize=30;horizontalStack=0;resizeParent=1;resizeParentMax=0;resizeLast=0;collapsible=1;marginBottom=0;whiteSpace=wrap;html=1;" parent="1" vertex="1">
          <mxGeometry x="170" y="220" width="140" height="158" as="geometry" />
        </mxCell>
        <mxCell id="0UKZ5Wy3TwZcNnDCWIbI-6" value="-nombre" style="text;strokeColor=none;fillColor=none;align=left;verticalAlign=middle;spacingLeft=4;spacingRight=4;overflow=hidden;points=[[0,0.5],[1,0.5]];portConstraint=eastwest;rotatable=0;whiteSpace=wrap;html=1;" parent="0UKZ5Wy3TwZcNnDCWIbI-5" vertex="1">
          <mxGeometry y="30" width="140" height="30" as="geometry" />
        </mxCell>
        <mxCell id="0UKZ5Wy3TwZcNnDCWIbI-68" value="-DESCUENTO= 10" style="text;strokeColor=none;fillColor=none;align=left;verticalAlign=middle;spacingLeft=4;spacingRight=4;overflow=hidden;points=[[0,0.5],[1,0.5]];portConstraint=eastwest;rotatable=0;whiteSpace=wrap;html=1;" parent="0UKZ5Wy3TwZcNnDCWIbI-5" vertex="1">
          <mxGeometry y="60" width="140" height="30" as="geometry" />
        </mxCell>
        <mxCell id="0UKZ5Wy3TwZcNnDCWIbI-66" value="" style="line;strokeWidth=1;fillColor=none;align=left;verticalAlign=middle;spacingTop=-1;spacingLeft=3;spacingRight=3;rotatable=0;labelPosition=right;points=[];portConstraint=eastwest;strokeColor=inherit;" parent="0UKZ5Wy3TwZcNnDCWIbI-5" vertex="1">
          <mxGeometry y="90" width="140" height="8" as="geometry" />
        </mxCell>
        <mxCell id="zB7Bvsbqb9wMqwJzrUZj-41" value="+facturar()" style="text;strokeColor=none;fillColor=none;align=left;verticalAlign=middle;spacingLeft=4;spacingRight=4;overflow=hidden;points=[[0,0.5],[1,0.5]];portConstraint=eastwest;rotatable=0;whiteSpace=wrap;html=1;" vertex="1" parent="0UKZ5Wy3TwZcNnDCWIbI-5">
          <mxGeometry y="98" width="140" height="30" as="geometry" />
        </mxCell>
        <mxCell id="0UKZ5Wy3TwZcNnDCWIbI-65" value="+imprimirTicket()" style="text;strokeColor=none;fillColor=none;align=left;verticalAlign=middle;spacingLeft=4;spacingRight=4;overflow=hidden;points=[[0,0.5],[1,0.5]];portConstraint=eastwest;rotatable=0;whiteSpace=wrap;html=1;" parent="0UKZ5Wy3TwZcNnDCWIbI-5" vertex="1">
          <mxGeometry y="128" width="140" height="30" as="geometry" />
        </mxCell>
        <mxCell id="zB7Bvsbqb9wMqwJzrUZj-1" value="Producto" style="swimlane;fontStyle=0;childLayout=stackLayout;horizontal=1;startSize=30;horizontalStack=0;resizeParent=1;resizeParentMax=0;resizeLast=0;collapsible=1;marginBottom=0;whiteSpace=wrap;html=1;" vertex="1" parent="1">
          <mxGeometry x="450" y="220" width="140" height="158" as="geometry" />
        </mxCell>
        <mxCell id="zB7Bvsbqb9wMqwJzrUZj-2" value="-nombre" style="text;strokeColor=none;fillColor=none;align=left;verticalAlign=middle;spacingLeft=4;spacingRight=4;overflow=hidden;points=[[0,0.5],[1,0.5]];portConstraint=eastwest;rotatable=0;whiteSpace=wrap;html=1;" vertex="1" parent="zB7Bvsbqb9wMqwJzrUZj-1">
          <mxGeometry y="30" width="140" height="30" as="geometry" />
        </mxCell>
        <mxCell id="zB7Bvsbqb9wMqwJzrUZj-3" value="-precio" style="text;strokeColor=none;fillColor=none;align=left;verticalAlign=middle;spacingLeft=4;spacingRight=4;overflow=hidden;points=[[0,0.5],[1,0.5]];portConstraint=eastwest;rotatable=0;whiteSpace=wrap;html=1;" vertex="1" parent="zB7Bvsbqb9wMqwJzrUZj-1">
          <mxGeometry y="60" width="140" height="30" as="geometry" />
        </mxCell>
        <mxCell id="zB7Bvsbqb9wMqwJzrUZj-6" value="" style="line;strokeWidth=1;fillColor=none;align=left;verticalAlign=middle;spacingTop=-1;spacingLeft=3;spacingRight=3;rotatable=0;labelPosition=right;points=[];portConstraint=eastwest;strokeColor=inherit;" vertex="1" parent="zB7Bvsbqb9wMqwJzrUZj-1">
          <mxGeometry y="90" width="140" height="8" as="geometry" />
        </mxCell>
        <mxCell id="zB7Bvsbqb9wMqwJzrUZj-42" value="+facturar()" style="text;strokeColor=none;fillColor=none;align=left;verticalAlign=middle;spacingLeft=4;spacingRight=4;overflow=hidden;points=[[0,0.5],[1,0.5]];portConstraint=eastwest;rotatable=0;whiteSpace=wrap;html=1;" vertex="1" parent="zB7Bvsbqb9wMqwJzrUZj-1">
          <mxGeometry y="98" width="140" height="30" as="geometry" />
        </mxCell>
        <mxCell id="zB7Bvsbqb9wMqwJzrUZj-9" value="+imprimirTicket()" style="text;strokeColor=none;fillColor=none;align=left;verticalAlign=middle;spacingLeft=4;spacingRight=4;overflow=hidden;points=[[0,0.5],[1,0.5]];portConstraint=eastwest;rotatable=0;whiteSpace=wrap;html=1;" vertex="1" parent="zB7Bvsbqb9wMqwJzrUZj-1">
          <mxGeometry y="128" width="140" height="30" as="geometry" />
        </mxCell>
        <mxCell id="zB7Bvsbqb9wMqwJzrUZj-11" value="-productos" style="endArrow=open;html=1;endSize=12;startArrow=diamondThin;startSize=14;startFill=0;edgeStyle=orthogonalEdgeStyle;rounded=0;exitX=0.214;exitY=0;exitDx=0;exitDy=0;exitPerimeter=0;" edge="1" parent="1" source="0UKZ5Wy3TwZcNnDCWIbI-5" target="zB7Bvsbqb9wMqwJzrUZj-17">
          <mxGeometry y="10" relative="1" as="geometry">
            <mxPoint x="310" y="340" as="sourcePoint" />
            <mxPoint x="380" y="110" as="targetPoint" />
            <mxPoint as="offset" />
          </mxGeometry>
        </mxCell>
        <mxCell id="zB7Bvsbqb9wMqwJzrUZj-12" value="0..n" style="edgeLabel;resizable=0;html=1;align=left;verticalAlign=top;" connectable="0" vertex="1" parent="zB7Bvsbqb9wMqwJzrUZj-11">
          <mxGeometry x="-1" relative="1" as="geometry">
            <mxPoint y="-40" as="offset" />
          </mxGeometry>
        </mxCell>
        <mxCell id="zB7Bvsbqb9wMqwJzrUZj-14" value="&lt;div&gt;&lt;i style=&quot;&quot;&gt;&amp;lt;&amp;lt;Interface&amp;gt;&amp;gt;&lt;/i&gt;&lt;/div&gt;&lt;i&gt;Facturable&lt;/i&gt;" style="swimlane;fontStyle=0;childLayout=stackLayout;horizontal=1;startSize=30;horizontalStack=0;resizeParent=1;resizeParentMax=0;resizeLast=0;collapsible=1;marginBottom=0;whiteSpace=wrap;html=1;" vertex="1" parent="1">
          <mxGeometry x="310" y="40" width="140" height="68" as="geometry" />
        </mxCell>
        <mxCell id="zB7Bvsbqb9wMqwJzrUZj-17" value="" style="line;strokeWidth=1;fillColor=none;align=left;verticalAlign=middle;spacingTop=-1;spacingLeft=3;spacingRight=3;rotatable=0;labelPosition=right;points=[];portConstraint=eastwest;strokeColor=inherit;" vertex="1" parent="zB7Bvsbqb9wMqwJzrUZj-14">
          <mxGeometry y="30" width="140" height="8" as="geometry" />
        </mxCell>
        <mxCell id="zB7Bvsbqb9wMqwJzrUZj-18" value="&lt;i&gt;+facturar():precio&lt;/i&gt;" style="text;strokeColor=none;fillColor=none;align=left;verticalAlign=middle;spacingLeft=4;spacingRight=4;overflow=hidden;points=[[0,0.5],[1,0.5]];portConstraint=eastwest;rotatable=0;whiteSpace=wrap;html=1;" vertex="1" parent="zB7Bvsbqb9wMqwJzrUZj-14">
          <mxGeometry y="38" width="140" height="30" as="geometry" />
        </mxCell>
        <mxCell id="zB7Bvsbqb9wMqwJzrUZj-19" value="" style="endArrow=block;dashed=1;endFill=0;endSize=12;html=1;rounded=0;entryX=0.681;entryY=0.971;entryDx=0;entryDy=0;entryPerimeter=0;exitX=-0.011;exitY=0.777;exitDx=0;exitDy=0;exitPerimeter=0;edgeStyle=orthogonalEdgeStyle;" edge="1" parent="1">
          <mxGeometry width="160" relative="1" as="geometry">
            <mxPoint x="449.99999999999994" y="304.02000000000004" as="sourcePoint" />
            <mxPoint x="381.53999999999996" y="107.99999999999999" as="targetPoint" />
          </mxGeometry>
        </mxCell>
        <mxCell id="zB7Bvsbqb9wMqwJzrUZj-21" value="Facturable" style="shape=umlLifeline;perimeter=lifelinePerimeter;whiteSpace=wrap;html=1;container=1;dropTarget=0;collapsible=0;recursiveResize=0;outlineConnect=0;portConstraint=eastwest;newEdgeStyle={&quot;curved&quot;:0,&quot;rounded&quot;:0};" vertex="1" parent="1">
          <mxGeometry x="250" y="540" width="100" height="300" as="geometry" />
        </mxCell>
        <mxCell id="zB7Bvsbqb9wMqwJzrUZj-37" value="" style="html=1;points=[[0,0,0,0,5],[0,1,0,0,-5],[1,0,0,0,5],[1,1,0,0,-5]];perimeter=orthogonalPerimeter;outlineConnect=0;targetShapes=umlLifeline;portConstraint=eastwest;newEdgeStyle={&quot;curved&quot;:0,&quot;rounded&quot;:0};" vertex="1" parent="zB7Bvsbqb9wMqwJzrUZj-21">
          <mxGeometry x="45" y="120" width="10" height="80" as="geometry" />
        </mxCell>
        <mxCell id="zB7Bvsbqb9wMqwJzrUZj-22" value="Combo&lt;div&gt;&lt;br&gt;&lt;/div&gt;" style="shape=umlLifeline;perimeter=lifelinePerimeter;whiteSpace=wrap;html=1;container=1;dropTarget=0;collapsible=0;recursiveResize=0;outlineConnect=0;portConstraint=eastwest;newEdgeStyle={&quot;curved&quot;:0,&quot;rounded&quot;:0};" vertex="1" parent="1">
          <mxGeometry x="130" y="540" width="100" height="300" as="geometry" />
        </mxCell>
        <mxCell id="zB7Bvsbqb9wMqwJzrUZj-34" value="" style="html=1;points=[[0,0,0,0,5],[0,1,0,0,-5],[1,0,0,0,5],[1,1,0,0,-5]];perimeter=orthogonalPerimeter;outlineConnect=0;targetShapes=umlLifeline;portConstraint=eastwest;newEdgeStyle={&quot;curved&quot;:0,&quot;rounded&quot;:0};" vertex="1" parent="zB7Bvsbqb9wMqwJzrUZj-22">
          <mxGeometry x="45" y="70" width="10" height="160" as="geometry" />
        </mxCell>
        <mxCell id="zB7Bvsbqb9wMqwJzrUZj-35" value="imprimirTicket()" style="html=1;verticalAlign=bottom;endArrow=block;curved=0;rounded=0;entryX=0;entryY=0;entryDx=0;entryDy=5;" edge="1" target="zB7Bvsbqb9wMqwJzrUZj-34" parent="zB7Bvsbqb9wMqwJzrUZj-22">
          <mxGeometry x="0.0039" relative="1" as="geometry">
            <mxPoint x="-40" y="75" as="sourcePoint" />
            <mxPoint as="offset" />
          </mxGeometry>
        </mxCell>
        <mxCell id="zB7Bvsbqb9wMqwJzrUZj-24" value="" style="shape=umlLifeline;perimeter=lifelinePerimeter;whiteSpace=wrap;html=1;container=1;dropTarget=0;collapsible=0;recursiveResize=0;outlineConnect=0;portConstraint=eastwest;newEdgeStyle={&quot;curved&quot;:0,&quot;rounded&quot;:0};participant=umlActor;" vertex="1" parent="1">
          <mxGeometry x="80" y="540" width="20" height="300" as="geometry" />
        </mxCell>
        <mxCell id="zB7Bvsbqb9wMqwJzrUZj-38" value="facturar()" style="html=1;verticalAlign=bottom;endArrow=block;curved=0;rounded=0;entryX=0;entryY=0;entryDx=0;entryDy=5;" edge="1" target="zB7Bvsbqb9wMqwJzrUZj-37" parent="1" source="zB7Bvsbqb9wMqwJzrUZj-34">
          <mxGeometry x="-0.0021" relative="1" as="geometry">
            <mxPoint x="190" y="635" as="sourcePoint" />
            <mxPoint as="offset" />
          </mxGeometry>
        </mxCell>
        <mxCell id="zB7Bvsbqb9wMqwJzrUZj-40" value="return" style="html=1;verticalAlign=bottom;endArrow=open;dashed=1;endSize=8;curved=0;rounded=0;" edge="1" parent="1">
          <mxGeometry relative="1" as="geometry">
            <mxPoint x="90" y="760" as="targetPoint" />
            <mxPoint x="175" y="760" as="sourcePoint" />
            <Array as="points">
              <mxPoint x="130" y="760" />
            </Array>
          </mxGeometry>
        </mxCell>
        <mxCell id="zB7Bvsbqb9wMqwJzrUZj-39" value="precio" style="html=1;verticalAlign=bottom;endArrow=open;dashed=1;endSize=8;curved=0;rounded=0;exitX=0;exitY=1;exitDx=0;exitDy=-5;" edge="1" source="zB7Bvsbqb9wMqwJzrUZj-37" parent="1" target="zB7Bvsbqb9wMqwJzrUZj-34">
          <mxGeometry relative="1" as="geometry">
            <mxPoint x="220" y="705" as="targetPoint" />
          </mxGeometry>
        </mxCell>
        <mxCell id="zB7Bvsbqb9wMqwJzrUZj-44" value="loop" style="shape=umlFrame;whiteSpace=wrap;html=1;pointerEvents=0;" vertex="1" parent="1">
          <mxGeometry x="150" y="630" width="210" height="120" as="geometry" />
        </mxCell>
        <mxCell id="zB7Bvsbqb9wMqwJzrUZj-45" value="Por cada Facturable en productos" style="html=1;whiteSpace=wrap;opacity=0;fontSize=6;" vertex="1" parent="1">
          <mxGeometry x="310" y="630" width="50" height="30" as="geometry" />
        </mxCell>
        <mxCell id="zB7Bvsbqb9wMqwJzrUZj-20" value="" style="endArrow=block;dashed=1;endFill=0;endSize=12;html=1;rounded=0;entryX=0.338;entryY=0.933;entryDx=0;entryDy=0;entryPerimeter=0;exitX=1.015;exitY=0.743;exitDx=0;exitDy=0;exitPerimeter=0;edgeStyle=orthogonalEdgeStyle;" edge="1" parent="1" source="0UKZ5Wy3TwZcNnDCWIbI-68">
          <mxGeometry width="160" relative="1" as="geometry">
            <mxPoint x="291.81" y="301.15" as="sourcePoint" />
            <mxPoint x="359.53" y="107.9999999999999" as="targetPoint" />
          </mxGeometry>
        </mxCell>
        <mxCell id="zB7Bvsbqb9wMqwJzrUZj-49" value="Imprimir ticket de Combo" style="text;html=1;align=center;verticalAlign=middle;resizable=0;points=[];autosize=1;strokeColor=none;fillColor=none;" vertex="1" parent="1">
          <mxGeometry x="90" y="500" width="160" height="30" as="geometry" />
        </mxCell>
      </root>
    </mxGraphModel>
  </diagram>
</mxfile>
